<?xml version="1.0" encoding="UTF-8" standalone="no"?><!DOCTYPE svg PUBLIC "-//W3C//DTD SVG 1.1//EN" "http://www.w3.org/Graphics/SVG/1.1/DTD/svg11.dtd"><svg width="100%" height="100%" viewBox="0 0 110 107" version="1.1" xmlns="http://www.w3.org/2000/svg" xmlns:xlink="http://www.w3.org/1999/xlink" xml:space="preserve" xmlns:serif="http://www.serif.com/" style="fill-rule:evenodd;clip-rule:evenodd;stroke-linejoin:round;stroke-miterlimit:2;"><g><path id="path1481" d="M2.629,86.671c-0.395,0.497 -0.434,1.189 -0.098,1.728c0.336,0.538 0.975,0.807 1.595,0.67c10.961,-2.415 40.394,-8.9 46.646,-10.277c0.687,-0.152 1.177,-0.761 1.177,-1.465c0,-7.981 0,-53.412 0,-70.674c0,-0.701 -0.486,-1.309 -1.17,-1.463c-0.684,-0.154 -1.384,0.186 -1.685,0.82c-7.059,14.859 -24.855,52.324 -26.143,55.034c-0.049,0.103 -0.109,0.2 -0.18,0.29c-1.317,1.655 -14.435,18.158 -20.142,25.337Z" style="fill:url(#_Linear1);fill-rule:nonzero;"/><path id="path14811" serif:id="path1481" d="M107.366,86.671c0.395,0.497 0.434,1.189 0.098,1.728c-0.336,0.538 -0.975,0.807 -1.595,0.67c-10.961,-2.415 -40.395,-8.9 -46.646,-10.277c-0.688,-0.152 -1.177,-0.761 -1.177,-1.465c-0,-7.981 -0,-53.412 -0,-70.674c-0,-0.701 0.486,-1.309 1.17,-1.463c0.684,-0.154 1.384,0.186 1.685,0.82c7.058,14.859 24.855,52.324 26.142,55.034c0.049,0.103 0.11,0.2 0.181,0.29c1.316,1.655 14.435,18.158 20.142,25.337Zm-45.32,-68.928l-0,57.575l37.806,8.33l-15.759,-19.825c-0.261,-0.328 -0.483,-0.685 -0.663,-1.063l-21.384,-45.017Z" style="fill:url(#_Linear2);"/><path d="M7.461,97.763c-0.705,-0.124 -1.224,-0.73 -1.238,-1.446c-0.015,-0.716 0.478,-1.342 1.177,-1.496c13.775,-3.025 42.379,-9.305 47.034,-10.327c0.426,-0.094 0.867,-0.093 1.293,0.001c4.624,1.026 32.885,7.294 46.528,10.32c0.699,0.155 1.191,0.781 1.175,1.497c-0.015,0.715 -0.534,1.32 -1.239,1.444c-13.854,2.446 -42.641,7.528 -46.864,8.274c-0.345,0.061 -0.698,0.061 -1.043,-0c-4.218,-0.745 -32.952,-5.818 -46.823,-8.267Z" style="fill:url(#_Linear3);"/></g><defs><linearGradient id="_Linear1" x1="0" y1="0" x2="1" y2="0" gradientUnits="userSpaceOnUse" gradientTransform="matrix(-36.6864,-21.917,21.917,-36.6864,51.949,78.5323)"><stop offset="0" style="stop-color:#142b5b;stop-opacity:1"/><stop offset="0.44" style="stop-color:#154884;stop-opacity:1"/><stop offset="1" style="stop-color:#178ce3;stop-opacity:1"/></linearGradient><linearGradient id="_Linear2" x1="0" y1="0" x2="1" y2="0" gradientUnits="userSpaceOnUse" gradientTransform="matrix(-37.5987,21.917,37.9614,65.1229,95.6443,56.6153)"><stop offset="0" style="stop-color:#178ce3;stop-opacity:1"/><stop offset="0.56" style="stop-color:#154884;stop-opacity:1"/><stop offset="1" style="stop-color:#142b5b;stop-opacity:1"/></linearGradient><linearGradient id="_Linear3" x1="0" y1="0" x2="1" y2="0" gradientUnits="userSpaceOnUse" gradientTransform="matrix(-0.274542,30.8784,-30.8784,-0.274542,55.0803,84.3517)"><stop offset="0" style="stop-color:#000;stop-opacity:1"/><stop offset="1" style="stop-color:#3d5887;stop-opacity:1"/></linearGradient></defs></svg>